<?xml version="1.0" encoding="utf-8"?>
<!-- Generator: Adobe Illustrator 25.3.1, SVG Export Plug-In . SVG Version: 6.00 Build 0)  -->
<svg version="1.1" id="Слой_1" xmlns="http://www.w3.org/2000/svg" xmlns:xlink="http://www.w3.org/1999/xlink" x="0px" y="0px"
	 viewBox="0 0 763 763" style="enable-background:new 0 0 763 763;" xml:space="preserve">
<style type="text/css">
	.st0{fill:#FFFFFF;}
</style>
<circle cx="381.5" cy="381.5" r="381.5"/>
<g>
	<path class="st0" d="M262.4,492.7c-27.6,0-54.5,0-82.1,0c4.7-5.1,7.8-10.3,8.9-16.5c0.3-1.7,0.4-3.4,0.4-5
		c-0.1-36.1-0.2-72.3-0.3-108.4c0-12.4-0.2-24.8-0.2-37.2c0-20.7,0.2-41.3,0.2-62c0-20.7-0.4-41.3-0.1-62
		c0.1-10.2-4.6-16.6-13.2-20.9c-0.3-0.1-0.6-0.2-0.9-0.4c-1.1-0.7-2.1-1.4-3.7-2.4c3.5-0.7,6.6-1.5,9.7-2c11.2-1.6,22.5-3,33.8-4.5
		c7-0.9,14-1.8,21-2.8c3.3-0.5,6.5-1.3,9.8-1.7c3.8-0.4,6.6,2,6.6,5.6c0,11,0,21.9-0.1,32.9c-0.1,14-0.2,27.9-0.2,41.9
		c0.1,34.4,0.3,68.8,0.3,103.2c0.1,29,0,58,0.1,87c0,10.9,0.1,21.7,0.3,32.6c0.2,8.1,3.3,15.1,8.6,21.1
		C261.5,491.5,261.7,491.9,262.4,492.7z"/>
	<path class="st0" d="M289.4,277c1.8-0.4,2.9-0.8,4-1c7.6-1,15.2-1.9,22.8-2.9c10.5-1.4,21-3,31.5-4.5c5.2-0.7,10.5-1.3,15.6-2.4
		c3.3-0.7,5.8,0.1,7,3c0.3,0.9,0.4,1.9,0.4,2.8c0.1,26.5,0.2,53.1,0.2,79.6c0,20-0.1,39.9-0.1,59.9c0.1,19.4,0.4,38.8,0.4,58.2
		c0,8.6,3.6,15.7,9.6,22.4c-27.3,0-54.2,0-81.6,0c7.6-7.9,9.6-17,9.6-27.2c-0.2-51.8-0.1-103.7-0.2-155.5c0-3.6-0.4-7.2-0.5-10.8
		c-0.2-8.9-5.2-14.5-12.6-18.5C293.8,279.3,292,278.4,289.4,277z"/>
	<path class="st0" d="M501.5,261.1c-6,3.7-10,8.3-12.6,14c-1.8,3.8-3.3,7.8-4.5,11.9c-5.1,17.9-7.3,36.3-8.1,54.8
		c-0.8,18.1-1.5,36.2-1.2,54.4c0.2,13.3,1.9,26.7,3.3,39.9c0.9,8,2.3,15.9,4,23.8c1.4,6.4,3.1,12.8,5.7,18.8
		c2.4,5.7,6.2,10.9,11.8,14.2c0.3,0.2,0.5,0.6,1,1.2c-0.9,0.1-1.5,0.4-2,0.2c-7.6-2.5-15.4-4.5-22.6-7.8
		c-6.8-3.1-13.4-7.2-19.5-11.5c-8.7-6.2-15.8-14.1-21.8-22.9c-5.9-8.7-10.9-18.1-14.5-28.1c-6.6-18.1-9.4-36.8-7.5-55.8
		c1.5-15.3,4-30.5,11.4-44.3c4.1-7.7,8-15.6,12.9-22.8c5.6-8.1,12.5-15.1,20.5-21.1c6.4-4.7,12.8-9.3,20.1-12.1
		c6.8-2.6,13.9-4.5,20.9-6.7C499.5,261,500.1,261.1,501.5,261.1z"/>
	<path class="st0" d="M526.5,494.3c2.8-2.7,5.7-4.9,7.9-7.8c6.1-7.8,8.7-17.2,10.3-26.7c2.1-12,3.8-24.1,5-36.2
		c2.1-21,2.9-42,1.8-63.1c-0.7-12.3-1.5-24.6-2.5-36.9c-0.6-6.6-1.5-13.3-2.9-19.8c-2.6-12-4.4-24.3-12-34.6c-2-2.6-4.8-4.6-7.3-6.9
		c-0.5-0.5-1.1-0.8-1.3-1.9c4.3,1.2,8.6,2.3,12.8,3.6c13.9,4.3,26.2,11.4,37.1,21.1c11.2,10,19.1,22.3,25.6,35.5
		c6,12.3,9.7,25.4,11.4,38.9c1.6,13,1.6,26.2-0.3,39.3c-2.2,15.1-6.8,29.3-14.1,42.7c-5.4,9.8-11.3,19.1-19.6,26.7
		c-6.4,5.9-13.3,10.8-20.8,15.2c-8.9,5.2-18.8,7.5-28.4,10.8C528.4,494.5,527.4,494.3,526.5,494.3z"/>
	<path class="st0" d="M340,606.8c-15.4,0.4-28.7-11.3-31.3-26.7c-2.2-12.5,0.9-23.2,9.9-32.2c12.2-12.3,32.3-11.7,44.3,1.2
		c10.4,11.3,12.5,24.3,6.7,38.3C364.6,599.6,353.1,607.3,340,606.8z"/>
	<path class="st0" d="M305.7,244.1c2.8-6.5,5.3-12.2,7.8-17.9c4.9-11.2,9.8-22.4,14.7-33.5c4.9-11.1,10-22.1,14.9-33.1
		c0.8-1.8,1.6-1.4,3-0.9c11.9,4.7,23.9,9.4,35.8,14.1c0.8,0.3,1.7,0.6,3,1c-2.9,2.9-5.4,5.6-8.1,8.2c-6,5.8-12,11.5-18,17.2
		c-7.8,7.5-15.6,14.9-23.3,22.4c-7,6.8-13.8,13.9-20.8,20.7C312.3,244.7,309.3,244,305.7,244.1z"/>
</g>
</svg>
