<svg width="40" height="40" viewBox="0 0 40 40" fill="none" xmlns="http://www.w3.org/2000/svg">
<circle cx="20" cy="20" r="20" fill="#7294C7"/>
<path d="M29.8068 25.1153C29.8068 25.0322 29.7237 25.0322 29.7237 24.9492C29.3916 24.285 28.6444 23.4548 27.6481 22.5416C27.15 22.1264 26.9009 21.7943 26.7349 21.6283C26.4858 21.2962 26.4858 21.0471 26.5689 20.715C26.6519 20.466 26.984 20.0509 27.5651 19.3036C27.8972 18.8885 28.0633 18.6395 28.3123 18.3904C29.5577 16.7299 30.1388 15.6506 29.9728 15.1525L29.8898 15.0695C29.8068 14.9865 29.7237 14.9034 29.5577 14.9034C29.3916 14.8204 29.1426 14.8204 28.8935 14.9034H25.7386C25.6556 14.9034 25.6556 14.9034 25.4895 14.9034C25.4065 14.9034 25.3235 14.9034 25.3235 14.9034H25.2405H25.1575L25.0744 14.9865C24.9914 15.0695 24.9914 15.0695 24.9914 15.1525C24.6593 16.0658 24.2442 16.813 23.8291 17.6432C23.58 18.0583 23.331 18.4734 23.0819 18.8055C22.8328 19.1376 22.6668 19.3867 22.5007 19.5527C22.3347 19.7188 22.1686 19.8018 22.0856 19.9678C22.0026 20.0509 21.8365 20.1339 21.8365 20.0509C21.7535 20.0509 21.6705 20.0509 21.6705 19.9678C21.5875 19.8848 21.5045 19.8018 21.4214 19.7188C21.3384 19.6357 21.3384 19.4697 21.2554 19.3036C21.2554 19.1376 21.2554 18.9716 21.2554 18.8885C21.2554 18.8055 21.2554 18.5565 21.2554 18.3904C21.2554 18.1413 21.2554 17.9753 21.2554 17.8923C21.2554 17.6432 21.2554 17.3111 21.2554 16.979C21.2554 16.6469 21.2554 16.3978 21.2554 16.2318C21.2554 16.0658 21.2554 15.8167 21.2554 15.6506C21.2554 15.4016 21.2554 15.2355 21.2554 15.1525C21.2554 15.0695 21.1724 14.9034 21.1724 14.8204C21.0893 14.7374 21.0063 14.6544 20.9233 14.5713C20.8403 14.4883 20.6742 14.4883 20.5912 14.4053C20.1761 14.3223 19.678 14.2393 19.0968 14.2393C17.7684 14.2393 16.8552 14.3223 16.5231 14.4883C16.357 14.5714 16.191 14.6544 16.108 14.8204C15.9419 14.9865 15.9419 15.0695 16.0249 15.0695C16.4401 15.1525 16.7722 15.3185 16.9382 15.5676L17.0212 15.7337C17.1042 15.8167 17.1042 15.9827 17.1873 16.2318C17.2703 16.4809 17.2703 16.7299 17.2703 17.062C17.2703 17.5602 17.2703 18.0583 17.2703 18.3904C17.2703 18.8055 17.1873 19.0546 17.1873 19.3036C17.1873 19.5527 17.1042 19.7188 17.0212 19.8018C16.9382 19.9678 16.9382 20.0509 16.8552 20.0509C16.8552 20.0509 16.8552 20.1339 16.7721 20.1339C16.6891 20.1339 16.6061 20.2169 16.4401 20.2169C16.357 20.2169 16.191 20.1339 16.108 20.0509C15.9419 19.9678 15.7759 19.8018 15.6929 19.6357C15.5268 19.4697 15.3608 19.2206 15.1947 18.8885C15.0287 18.5564 14.7796 18.2244 14.6135 17.7262L14.4475 17.3941C14.3645 17.2281 14.1984 16.896 14.0324 16.4809C13.8663 16.0658 13.7003 15.7337 13.5343 15.3186C13.4512 15.1525 13.3682 15.0695 13.2852 14.9865H13.2022C13.2022 14.9865 13.1191 14.9034 13.0361 14.9034C12.9531 14.9034 12.8701 14.8204 12.7871 14.8204H9.79822C9.46613 14.8204 9.30008 14.9034 9.21706 14.9865L9.13403 15.0695C9.13403 15.0695 9.13403 15.1525 9.13403 15.2355C9.13403 15.3186 9.13404 15.4016 9.21706 15.5676C9.63218 16.5639 10.1303 17.5602 10.6284 18.5564C11.1266 19.4697 11.6247 20.2999 11.9568 20.8811C12.3719 21.4623 12.704 22.0434 13.1191 22.5416C13.5343 23.0397 13.7833 23.3718 13.8663 23.5378C14.0324 23.7039 14.1154 23.7869 14.1984 23.8699L14.4475 24.119C14.6136 24.285 14.8626 24.5341 15.1947 24.7832C15.5268 25.0322 15.9419 25.2813 16.357 25.5304C16.7721 25.7794 17.2703 25.9455 17.7684 26.1115C18.3496 26.2776 18.8477 26.3606 19.3459 26.2776H20.5912C20.8403 26.2776 21.0063 26.1946 21.1724 26.0285L21.2554 25.9455C21.2554 25.8625 21.3384 25.8625 21.3384 25.7794C21.3384 25.6964 21.3384 25.6134 21.3384 25.4474C21.3384 25.1153 21.3384 24.8662 21.4214 24.6171C21.5045 24.3681 21.5045 24.202 21.5875 24.036C21.6705 23.8699 21.7535 23.7869 21.8365 23.7039C21.9196 23.6208 22.0026 23.5378 22.0026 23.5378H22.0856C22.2516 23.4548 22.5007 23.5378 22.6668 23.7039C22.9158 23.8699 23.1649 24.119 23.3309 24.3681C23.497 24.6171 23.7461 24.8662 24.0782 25.1983C24.4103 25.5304 24.6593 25.7794 24.8254 25.8625L25.0744 26.0285C25.2405 26.1115 25.4065 26.1946 25.6556 26.2776C25.9047 26.3606 26.0707 26.3606 26.2367 26.3606L29.0595 26.2776C29.3086 26.2776 29.5577 26.1946 29.7237 26.1115C29.8898 26.0285 29.9728 25.9455 29.9728 25.7794C29.9728 25.6964 29.9728 25.5304 29.9728 25.4474C29.8067 25.2813 29.8068 25.1983 29.8068 25.1153Z" fill="white"/>
</svg>
