<?xml version="1.0" encoding="utf-8"?><svg viewBox="0 0 55 55" xmlns="http://www.w3.org/2000/svg" xmlns:xlink="http://www.w3.org/1999/xlink"><style>:root>svg{display:none}:root>svg:target{display:block}</style><svg fill="none" viewBox="0 0 24 24" id="arrow-down" xmlns="http://www.w3.org/2000/svg"><path d="M6 9l6 6 6-6" stroke="#0A0A0A" stroke-width="2" stroke-linecap="round" stroke-linejoin="round"/></svg><svg fill="none" viewBox="0 0 20 20" id="arrow-right" xmlns="http://www.w3.org/2000/svg"><path d="M4.45 10h11.433M10.166 4.166L15.883 10l-5.716 5.833" stroke="#4E4E4E" stroke-width=".825" stroke-linecap="round" stroke-linejoin="round"/></svg><svg fill="none" viewBox="0 0 55 55" id="close" xmlns="http://www.w3.org/2000/svg"><path d="M35.556 19.556l-16 16M19.555 19.556l16 16" stroke="#0A0A0A" stroke-width="1.2" stroke-linecap="round" stroke-linejoin="round"/><rect x=".5" y=".5" width="54" height="54" rx="27" stroke="#EDEDED"/></svg><svg fill="none" viewBox="0 0 18 22" id="polygon" xmlns="http://www.w3.org/2000/svg"><path d="M18 11L0 21.392V.608L18 11z" fill="#fff"/></svg><svg fill="none" viewBox="0 0 40 40" id="vk" xmlns="http://www.w3.org/2000/svg"><circle cx="20" cy="20" r="20" fill="#7294C7"/><path d="M29.807 25.115c0-.083-.083-.083-.083-.166-.332-.664-1.08-1.494-2.076-2.407-.498-.416-.747-.748-.913-.914-.25-.332-.25-.58-.166-.913.083-.249.415-.664.996-1.411.332-.415.498-.664.747-.914 1.246-1.66 1.827-2.74 1.66-3.238l-.082-.082c-.083-.084-.166-.167-.332-.167-.166-.083-.415-.083-.665 0H25.157l-.083.083c-.083.083-.083.083-.083.166-.332.914-.747 1.661-1.162 2.491-.249.415-.498.83-.747 1.162-.25.333-.415.582-.581.748-.166.166-.332.249-.415.415-.083.083-.25.166-.25.083-.082 0-.165 0-.165-.083l-.25-.25c-.083-.082-.083-.248-.166-.414v-.415-.499-.498-.913-.747-.581-.498c0-.084-.083-.25-.083-.333a292.51 292.51 0 01-.249-.249c-.083-.083-.249-.083-.332-.166a7.448 7.448 0 00-1.494-.166c-1.329 0-2.242.083-2.574.25-.166.082-.332.165-.415.331-.166.166-.166.25-.083.25.415.082.747.248.913.498l.083.166c.083.083.083.249.166.498s.083.498.083.83v1.328c0 .415-.083.665-.083.914s-.083.415-.166.498c-.083.166-.083.249-.166.249 0 0 0 .083-.083.083s-.166.083-.332.083c-.083 0-.249-.083-.332-.166a1 1 0 01-.415-.415c-.166-.166-.332-.415-.498-.747-.166-.333-.415-.665-.582-1.163l-.165-.332c-.084-.166-.25-.498-.416-.913-.166-.415-.332-.747-.498-1.162a1.147 1.147 0 00-.249-.333h-.083s-.083-.083-.166-.083-.166-.083-.249-.083H9.798c-.332 0-.498.083-.58.166l-.084.083v.166c0 .084 0 .167.083.333.415.996.913 1.992 1.411 2.988.499.914.997 1.744 1.329 2.325.415.581.747 1.162 1.162 1.66.415.499.664.83.747.997l.332.332.25.249c.166.166.415.415.747.664.332.25.747.498 1.162.747.415.25.913.415 1.411.581.582.167 1.08.25 1.578.167h1.245c.25 0 .415-.083.581-.25l.083-.082c0-.084.083-.084.083-.167v-.332c0-.332 0-.58.083-.83.084-.249.084-.415.166-.581.084-.166.166-.25.25-.332l.166-.166h.083c.166-.083.415 0 .58.166.25.166.499.415.665.664.166.25.415.498.747.83.332.332.581.581.747.665l.25.166c.166.082.332.166.58.249.25.083.416.083.582.083l2.823-.083c.249 0 .498-.083.664-.166.166-.083.249-.166.249-.333v-.332c-.166-.166-.166-.249-.166-.332z" fill="#fff"/></svg><svg fill="none" viewBox="0 0 40 40" id="youtube" xmlns="http://www.w3.org/2000/svg"><circle cx="20" cy="20" r="20" fill="#F40000"/><path d="M28.713 18.913c0-.388-.065-.84-.065-1.357a88.402 88.402 0 00-.194-1.487c-.129-.517-.323-.905-.71-1.229-.324-.323-.776-.517-1.229-.581-1.487-.194-3.685-.259-6.658-.259-2.974 0-5.237.065-6.659.259-.453.064-.905.258-1.228.581a2.58 2.58 0 00-.711 1.229c-.13.452-.194.905-.194 1.487-.065.517-.065.97-.065 1.357v2.974c0 .388.065.84.065 1.357.064.518.129 1.035.194 1.487.129.517.323.905.71 1.229.324.323.777.517 1.229.581 1.487.194 3.685.259 6.659.259 2.973 0 5.236-.065 6.658-.259.453-.064.905-.258 1.228-.581.324-.324.582-.712.712-1.229.129-.452.194-.905.194-1.487.064-.517.064-.97.064-1.357V20.4v-1.487zm-5.43 2.004l-5.107 3.168a.494.494 0 01-.323.13c-.13 0-.194 0-.324-.066a.679.679 0 01-.323-.581v-6.4c0-.259.13-.453.323-.582a.587.587 0 01.647 0l5.107 3.168c.194.129.323.323.323.517s-.13.517-.323.646z" fill="#fff"/></svg></svg>