<svg width="140" height="28" viewBox="0 0 140 28" fill="none" xmlns="http://www.w3.org/2000/svg">
<g clip-path="url(#clip0_1767_2075)">
<path fill-rule="evenodd" clip-rule="evenodd" d="M137.413 20.8383H127.065V17.2002H135.062C136.275 17.2002 136.692 16.7892 136.692 15.5765V12.1675C136.692 10.9952 136.275 10.5842 135.062 10.5842H127.065V7.21559H137.069C138.282 7.21559 138.7 6.79788 138.7 5.58518V2.21655C138.7 1.04427 138.282 0.626563 137.069 0.626563H121.19C119.977 0.626563 119.559 1.04427 119.559 2.21655V25.871C119.559 27.0433 119.977 27.4543 121.19 27.4543H137.413C138.585 27.4543 139.003 27.0433 139.003 25.8778V22.4148C139.003 21.2156 138.585 20.8383 137.413 20.8383ZM67.083 20.8383H56.7413V17.18H64.7384C65.9511 17.18 66.3621 16.7623 66.3621 15.5563V12.1473C66.3621 10.975 65.9511 10.5573 64.7384 10.5573H56.7413V7.18864H66.7461C67.9588 7.18864 68.3765 6.77767 68.3765 5.56497V2.15592C68.3765 0.983638 67.9588 0.572667 66.7461 0.572667H50.8664C49.6537 0.572667 49.236 0.983638 49.236 2.15592V25.8441C49.236 27.0164 49.6537 27.4341 50.8664 27.4341H67.083C68.262 27.4341 68.6797 27.0164 68.6797 25.8441V22.4014C68.6797 21.1886 68.262 20.8114 67.083 20.8114V20.8383ZM11.6826 -9.2522e-07C4.21772 -9.2522e-07 0.0136719 4.04235 0.0136719 10.5977V17.3888C0.0136719 23.9307 4.21772 27.9798 11.6893 27.9798C17.5238 27.9798 21.1619 25.6015 22.7519 21.3638C23.1359 20.2656 22.8664 19.693 21.7278 19.3426L17.6855 17.9076C16.5469 17.4899 16.0888 17.7526 15.6643 18.9317C15.058 20.5553 13.8452 21.3908 11.723 21.3908C8.72494 21.3908 7.55265 20.1039 7.55265 17.4495V10.5573C7.55265 7.90953 8.72494 6.62271 11.723 6.62271C13.8452 6.62271 14.9838 7.38402 15.6643 9.08181C16.082 10.2541 16.5334 10.4293 17.6855 10.1059L21.7278 8.6641C22.8664 8.28682 23.1359 7.72089 22.7519 6.64293C21.1619 2.4052 17.5305 0.0269498 11.6961 0.0202126L11.6826 -9.2522e-07ZM36.3477 12.1877H32.2514V7.18864H36.3477C36.6829 7.14992 37.0227 7.18667 37.3419 7.29619C37.6612 7.40571 37.9519 7.58524 38.1928 7.82163C38.4337 8.05803 38.6187 8.3453 38.7343 8.66243C38.8498 8.97955 38.893 9.31851 38.8606 9.65447C38.8934 9.99236 38.8515 10.3333 38.738 10.6532C38.6244 10.9732 38.442 11.2642 38.2036 11.5059C37.9651 11.7475 37.6765 11.9338 37.3582 12.0517C37.0398 12.1695 36.6994 12.2159 36.3611 12.1877H36.3477ZM43.5767 19.1136C43.2885 18.5385 42.9456 17.9925 42.5527 17.4832C45.1263 16.0481 46.6422 13.4004 46.6422 9.68816C46.6422 3.82676 42.9299 0.572667 37.21 0.572667H26.4304C25.2177 0.572667 24.8 0.983638 24.8 2.15592V25.8441C24.8 27.0164 25.2177 27.4341 26.4304 27.4341H30.7153C31.928 27.4341 32.3053 27.0164 32.3053 25.8441V18.5072H33.1811C34.7307 18.5072 35.3775 19.1809 36.0243 20.4341L38.4497 25.6218C39.056 26.9692 39.9251 27.4341 41.9328 27.4341H46.0291C47.2755 27.4341 47.545 26.6054 47.0127 25.5813L43.5767 19.1136ZM90.0166 19.7873L86.5806 13.8046C86.5135 13.6941 86.4203 13.6018 86.3092 13.5358C86.198 13.4698 86.0723 13.4321 85.9432 13.4261C85.8141 13.4201 85.6854 13.446 85.5687 13.5014C85.4519 13.5569 85.3505 13.6402 85.2735 13.744L81.8106 19.7469C81.737 19.8642 81.6967 19.9993 81.6942 20.1378C81.6917 20.2762 81.727 20.4128 81.7963 20.5327C81.8656 20.6525 81.9663 20.7513 82.0875 20.8182C82.2087 20.8851 82.3459 20.9177 82.4843 20.9124H89.39C89.5214 20.9123 89.6504 20.8773 89.7637 20.811C89.8771 20.7446 89.9708 20.6493 90.0353 20.5348C90.0997 20.4204 90.1326 20.2908 90.1305 20.1594C90.1284 20.0281 90.0914 19.8997 90.0233 19.7873H90.0166ZM85.8866 10.0116C87.4557 10.0142 88.9889 10.4819 90.2922 11.3556C91.5956 12.2293 92.6107 13.4698 93.2094 14.9202C93.808 16.3706 93.9632 17.966 93.6555 19.5046C93.3477 21.0432 92.5908 22.4561 91.4803 23.5647C90.3699 24.6733 88.9557 25.4278 87.4165 25.733C85.8774 26.0381 84.2823 25.8802 82.8329 25.2791C81.3835 24.678 80.1448 23.6608 79.2733 22.3559C78.4018 21.051 77.9367 19.5171 77.9367 17.948C77.9367 16.9047 78.1424 15.8715 78.5421 14.9078C78.9418 13.944 79.5276 13.0685 80.266 12.3313C81.0044 11.5942 81.8809 11.0099 82.8453 10.6118C83.8098 10.2138 84.8433 10.0098 85.8866 10.0116ZM85.8866 11.0828C87.2501 11.0828 88.5829 11.4872 89.7164 12.2448C90.85 13.0024 91.7334 14.0792 92.2548 15.339C92.7763 16.5988 92.9124 17.9849 92.6459 19.3221C92.3794 20.6592 91.7223 21.8873 90.7578 22.8509C89.7932 23.8145 88.5645 24.4704 87.2271 24.7356C85.8897 25.0007 84.5037 24.8633 83.2444 24.3406C81.9851 23.8179 80.9092 22.9335 80.1527 21.7992C79.3962 20.6649 78.9931 19.3317 78.9944 17.9682C78.9944 17.0635 79.1727 16.1676 79.5192 15.3317C79.8656 14.4959 80.3734 13.7366 81.0135 13.0971C81.6536 12.4576 82.4134 11.9506 83.2496 11.605C84.0858 11.2593 84.9818 11.0819 85.8866 11.0828ZM100.924 24.1598C101.962 25.9586 101.187 27.5284 99.4285 27.5284H72.338C70.5796 27.5284 69.8048 25.9519 70.8424 24.1598L84.081 1.16554C85.031 -0.478346 86.776 -0.363812 87.8202 1.45524C92.1949 9.01893 96.5629 16.5871 100.924 24.1598ZM116.184 0.579403H97.4208C96.2081 0.579403 95.8308 0.997113 95.8308 2.16939V5.53802C95.8308 6.75072 96.2081 7.16843 97.4208 7.16843H103.067V25.871C103.067 27.0433 103.451 27.4543 104.663 27.4543H108.928C110.147 27.4543 110.558 27.0433 110.558 25.871V7.21559H116.171C117.383 7.21559 117.801 6.79788 117.801 5.58518V2.21655C117.814 1.01059 117.397 0.592878 116.184 0.592878V0.579403Z" fill="#EF7F1A"/>
</g>
<defs>
<clipPath id="clip0_1767_2075">
<rect width="139.003" height="28" fill="white"/>
</clipPath>
</defs>
</svg>
