<svg width="19" height="18" viewBox="0 0 19 18" fill="none" xmlns="http://www.w3.org/2000/svg">
<path d="M0.321628 8.67987L4.53855 10.2523L6.18242 15.5413C6.25389 15.8986 6.68273 15.9701 6.96862 15.7557L9.32722 13.8259C9.54164 13.6115 9.89901 13.6115 10.1849 13.8259L14.4018 16.8993C14.6877 17.1137 15.1165 16.9707 15.188 16.6134L18.3328 1.60405C18.4043 1.24669 18.0469 0.889327 17.6896 1.03227L0.321628 7.75073C-0.107209 7.89367 -0.107209 8.53693 0.321628 8.67987ZM5.96801 9.46607L14.2588 4.3915C14.4018 4.32002 14.5447 4.53445 14.4018 4.60592L7.61187 10.967C7.39745 11.1814 7.18303 11.4673 7.18303 11.8247L6.96862 13.54C6.96862 13.7545 6.61125 13.8259 6.53978 13.54L5.6821 10.3952C5.46768 10.0379 5.61064 9.60902 5.96801 9.46607Z" fill="#0A0A0A"/>
</svg>
