<svg width="19" height="18" viewBox="0 0 19 18" fill="none" xmlns="http://www.w3.org/2000/svg">
<path d="M14.6585 3.33333C13.1533 1.83333 11.1463 1 9.02787 1C4.62369 1 1.05575 4.55556 1.05575 8.94444C1.05575 10.3333 1.44599 11.7222 2.11498 12.8889L1 17L5.23694 15.8889C6.40767 16.5 7.68989 16.8333 9.02787 16.8333C13.4321 16.8333 17 13.2778 17 8.88889C16.9443 6.83333 16.1638 4.83333 14.6585 3.33333ZM12.8746 11.7778C12.7073 12.2222 11.9268 12.6667 11.5366 12.7222C11.2021 12.7778 10.7561 12.7778 10.3101 12.6667C10.0314 12.5556 9.64112 12.4444 9.19512 12.2222C7.18815 11.3889 5.90592 9.38889 5.79443 9.22222C5.68293 9.11111 4.95819 8.16667 4.95819 7.16667C4.95819 6.16667 5.45993 5.72222 5.62718 5.5C5.79442 5.27778 6.01742 5.27778 6.18467 5.27778C6.29617 5.27778 6.46341 5.27778 6.57491 5.27778C6.68641 5.27778 6.85366 5.22222 7.02091 5.61111C7.18815 6 7.5784 7 7.63415 7.05556C7.68989 7.16667 7.68989 7.27778 7.63415 7.38889C7.5784 7.5 7.52265 7.61111 7.41115 7.72222C7.29965 7.83333 7.18815 8 7.1324 8.05556C7.0209 8.16667 6.90941 8.27778 7.02091 8.44444C7.1324 8.66667 7.52265 9.27778 8.13589 9.83333C8.91638 10.5 9.52962 10.7222 9.75261 10.8333C9.97561 10.9444 10.0871 10.8889 10.1986 10.7778C10.3101 10.6667 10.7003 10.2222 10.8118 10C10.9233 9.77778 11.0906 9.83333 11.2578 9.88889C11.4251 9.94444 12.4286 10.4444 12.5958 10.5556C12.8188 10.6667 12.9303 10.7222 12.9861 10.7778C13.0418 10.9444 13.0418 11.3333 12.8746 11.7778Z" fill="#0A0A0A"/>
</svg>
